<svg xmlns="http://www.w3.org/2000/svg" width="920" height="740" viewBox="0 0 920 740" role="img" aria-label="깔끔한 웹사이트 미리보기">
  <defs>
    <linearGradient id="bg" x1="0" x2="1" y1="0" y2="1">
      <stop offset="0" stop-color="#ffffff"/>
      <stop offset="1" stop-color="#eff6ff"/>
    </linearGradient>
    <linearGradient id="accent" x1="0" x2="1" y1="0" y2="1">
      <stop offset="0" stop-color="#2563eb"/>
      <stop offset="1" stop-color="#93c5fd"/>
    </linearGradient>
    <filter id="shadow" x="-25%" y="-25%" width="150%" height="160%">
      <feDropShadow dx="0" dy="26" stdDeviation="26" flood-color="#0f172a" flood-opacity="0.12"/>
    </filter>
  </defs>
  <rect x="20" y="20" width="880" height="700" rx="42" fill="url(#bg)"/>
  <circle cx="772" cy="134" r="122" fill="#dbeafe" opacity="0.72"/>
  <circle cx="128" cy="618" r="146" fill="#e0f2fe" opacity="0.58"/>
  <g filter="url(#shadow)">
    <rect x="96" y="84" width="728" height="540" rx="30" fill="#ffffff" stroke="#dbeafe"/>
    <path d="M126 84h668a30 30 0 0 1 30 30v46H96v-46a30 30 0 0 1 30-30Z" fill="#f8fafc"/>
    <circle cx="140" cy="122" r="8" fill="#bfdbfe"/>
    <circle cx="168" cy="122" r="8" fill="#93c5fd"/>
    <circle cx="196" cy="122" r="8" fill="#60a5fa"/>
    <rect x="240" y="111" width="410" height="22" rx="11" fill="#e2e8f0"/>
    <rect x="138" y="206" width="210" height="22" rx="11" fill="#bfdbfe"/>
    <rect x="138" y="252" width="402" height="42" rx="21" fill="#0f172a" opacity="0.94"/>
    <rect x="138" y="318" width="486" height="18" rx="9" fill="#cbd5e1"/>
    <rect x="138" y="350" width="398" height="18" rx="9" fill="#e2e8f0"/>
    <rect x="138" y="408" width="150" height="50" rx="25" fill="url(#accent)"/>
    <rect x="308" y="408" width="150" height="50" rx="25" fill="#eff6ff" stroke="#bfdbfe"/>
    <rect x="138" y="520" width="166" height="76" rx="22" fill="#f8fafc" stroke="#e2e8f0"/>
    <rect x="324" y="520" width="166" height="76" rx="22" fill="#f8fafc" stroke="#e2e8f0"/>
    <rect x="510" y="520" width="166" height="76" rx="22" fill="#f8fafc" stroke="#e2e8f0"/>
    <rect x="604" y="208" width="166" height="236" rx="28" fill="#f8fafc" stroke="#dbeafe"/>
    <rect x="632" y="238" width="110" height="14" rx="7" fill="#bfdbfe"/>
    <rect x="632" y="274" width="84" height="14" rx="7" fill="#e2e8f0"/>
    <rect x="632" y="310" width="110" height="14" rx="7" fill="#e2e8f0"/>
    <rect x="632" y="364" width="88" height="44" rx="22" fill="#0f172a" opacity="0.9"/>
  </g>
</svg>
