<svg xmlns="http://www.w3.org/2000/svg" width="760" height="560" viewBox="0 0 760 560" role="img" aria-label="웹사이트 구조 설계 이미지">
  <defs>
    <linearGradient id="bg" x1="0" x2="1" y1="0" y2="1"><stop offset="0" stop-color="#ffffff"/><stop offset="1" stop-color="#f5f5f5"/></linearGradient>
    <filter id="s" x="-20%" y="-20%" width="140%" height="150%"><feDropShadow dx="0" dy="18" stdDeviation="22" flood-color="#171717" flood-opacity="0.1"/></filter>
  </defs>
  <rect width="760" height="560" rx="34" fill="#ffffff"/>
  <circle cx="624" cy="104" r="94" fill="#e8e8e8" opacity="0.78"/>
  <circle cx="122" cy="460" r="116" fill="#efefef" opacity="0.62"/>
  <g>
    <rect x="88" y="76" width="584" height="408" rx="28" fill="#ffffff" stroke="#e8e8e8"/>
    <rect x="126" y="118" width="184" height="24" rx="12" fill="#606060" opacity="0.84"/>
    <rect x="126" y="166" width="324" height="18" rx="9" fill="#d4d4d4"/>
    <rect x="126" y="198" width="274" height="18" rx="9" fill="#e7e7e7"/>
    <rect x="126" y="254" width="148" height="62" rx="20" fill="#f5f5f5" stroke="#d8d8d8"/>
    <rect x="306" y="254" width="148" height="62" rx="20" fill="#fafafa" stroke="#e7e7e7"/>
    <rect x="486" y="254" width="108" height="62" rx="20" fill="#fafafa" stroke="#e7e7e7"/>
    <rect x="126" y="362" width="468" height="76" rx="24" fill="#171717" opacity="0.92"/>
    <rect x="156" y="392" width="190" height="16" rx="8" fill="#d8d8d8"/>
    <rect x="404" y="380" width="132" height="40" rx="20" fill="#ffffff"/>
  </g>
</svg>
