<svg xmlns="http://www.w3.org/2000/svg" width="760" height="560" viewBox="0 0 760 560" role="img" aria-label="제작 범위 정리 이미지">
  <defs>
    <linearGradient id="bg" x1="0" x2="1" y1="0" y2="1"><stop offset="0" stop-color="#ffffff"/><stop offset="1" stop-color="#f0f9ff"/></linearGradient>
    <filter id="s" x="-20%" y="-20%" width="140%" height="150%"><feDropShadow dx="0" dy="18" stdDeviation="20" flood-color="#0f172a" flood-opacity="0.1"/></filter>
  </defs>
  <rect width="760" height="560" rx="34" fill="url(#bg)"/>
  <g filter="url(#s)">
    <rect x="92" y="88" width="220" height="324" rx="28" fill="#ffffff" stroke="#dbeafe"/>
    <rect x="134" y="132" width="96" height="18" rx="9" fill="#2563eb" opacity="0.86"/>
    <rect x="134" y="186" width="132" height="14" rx="7" fill="#cbd5e1"/>
    <rect x="134" y="224" width="118" height="14" rx="7" fill="#e2e8f0"/>
    <rect x="134" y="262" width="142" height="14" rx="7" fill="#e2e8f0"/>
    <rect x="134" y="326" width="116" height="42" rx="21" fill="#eff6ff" stroke="#bfdbfe"/>
    <rect x="376" y="88" width="292" height="140" rx="28" fill="#ffffff" stroke="#dbeafe"/>
    <rect x="416" y="132" width="142" height="18" rx="9" fill="#bfdbfe"/>
    <rect x="416" y="174" width="202" height="14" rx="7" fill="#e2e8f0"/>
    <rect x="376" y="272" width="292" height="140" rx="28" fill="#ffffff" stroke="#dbeafe"/>
    <rect x="416" y="316" width="126" height="18" rx="9" fill="#bfdbfe"/>
    <rect x="416" y="358" width="208" height="14" rx="7" fill="#e2e8f0"/>
  </g>
  <path d="M326 248h34" stroke="#93c5fd" stroke-width="10" stroke-linecap="round"/>
  <path d="M522 244v28" stroke="#93c5fd" stroke-width="10" stroke-linecap="round"/>
</svg>
