<svg xmlns="http://www.w3.org/2000/svg" width="760" height="560" viewBox="0 0 760 560" role="img" aria-label="상담 준비 이미지">
  <defs>
    <linearGradient id="bg" x1="0" x2="1" y1="0" y2="1"><stop offset="0" stop-color="#ffffff"/><stop offset="1" stop-color="#eff6ff"/></linearGradient>
    <filter id="s" x="-20%" y="-20%" width="140%" height="150%"><feDropShadow dx="0" dy="18" stdDeviation="20" flood-color="#0f172a" flood-opacity="0.1"/></filter>
  </defs>
  <rect width="760" height="560" rx="34" fill="url(#bg)"/>
  <g filter="url(#s)">
    <rect x="104" y="84" width="552" height="392" rx="30" fill="#ffffff" stroke="#dbeafe"/>
    <rect x="146" y="128" width="144" height="22" rx="11" fill="#2563eb" opacity="0.86"/>
    <rect x="146" y="184" width="468" height="58" rx="20" fill="#f8fafc" stroke="#e2e8f0"/>
    <circle cx="178" cy="213" r="10" fill="#93c5fd"/>
    <rect x="208" y="203" width="270" height="18" rx="9" fill="#cbd5e1"/>
    <rect x="146" y="268" width="468" height="58" rx="20" fill="#f8fafc" stroke="#e2e8f0"/>
    <circle cx="178" cy="297" r="10" fill="#93c5fd"/>
    <rect x="208" y="287" width="238" height="18" rx="9" fill="#cbd5e1"/>
    <rect x="146" y="352" width="468" height="58" rx="20" fill="#eff6ff" stroke="#bfdbfe"/>
    <circle cx="178" cy="381" r="10" fill="#2563eb"/>
    <rect x="208" y="371" width="310" height="18" rx="9" fill="#94a3b8"/>
  </g>
</svg>
