<svg xmlns="http://www.w3.org/2000/svg" width="760" height="560" viewBox="0 0 760 560" role="img" aria-label="모바일 화면 검토 이미지">
  <defs>
    <linearGradient id="bg" x1="0" x2="1" y1="0" y2="1"><stop offset="0" stop-color="#ffffff"/><stop offset="1" stop-color="#f4f4f4"/></linearGradient>
    <filter id="s" x="-20%" y="-20%" width="140%" height="150%"><feDropShadow dx="0" dy="20" stdDeviation="22" flood-color="#171717" flood-opacity="0.12"/></filter>
  </defs>
  <rect width="760" height="560" rx="34" fill="#ffffff"/>
  <circle cx="598" cy="122" r="112" fill="#e8e8e8" opacity="0.72"/>
  <g>
    <rect x="106" y="92" width="310" height="374" rx="30" fill="#ffffff" stroke="#e8e8e8"/>
    <rect x="136" y="136" width="160" height="22" rx="11" fill="#606060" opacity="0.86"/>
    <rect x="136" y="190" width="218" height="16" rx="8" fill="#d4d4d4"/>
    <rect x="136" y="222" width="178" height="16" rx="8" fill="#e7e7e7"/>
    <rect x="136" y="282" width="118" height="46" rx="23" fill="#171717" opacity="0.92"/>
    <rect x="136" y="368" width="220" height="58" rx="20" fill="#fafafa" stroke="#e7e7e7"/>
    <rect x="464" y="118" width="186" height="348" rx="36" fill="#171717" opacity="0.92"/>
    <rect x="484" y="150" width="146" height="284" rx="24" fill="#ffffff"/>
    <rect x="506" y="184" width="86" height="14" rx="7" fill="#d8d8d8"/>
    <rect x="506" y="224" width="104" height="32" rx="16" fill="#171717" opacity="0.92"/>
    <rect x="506" y="284" width="104" height="14" rx="7" fill="#d4d4d4"/>
    <rect x="506" y="314" width="84" height="14" rx="7" fill="#e7e7e7"/>
    <rect x="506" y="370" width="78" height="34" rx="17" fill="#606060"/>
  </g>
</svg>
