<svg xmlns="http://www.w3.org/2000/svg" width="720" height="520" viewBox="0 0 720 520" role="img" aria-label="제작 예시 카드 모음 일러스트">

  <defs>
    <linearGradient id="bg" x1="0" x2="1" y1="0" y2="1"><stop offset="0" stop-color="#ffffff"/><stop offset="1" stop-color="#f5f5f5"/></linearGradient>
    <filter id="soft" x="-20%" y="-20%" width="140%" height="140%"><feDropShadow dx="0" dy="18" stdDeviation="22" flood-color="#171717" flood-opacity="0.10"/></filter>
  </defs>

  <rect width="720" height="520" rx="34" fill="#ffffff"/>
  <circle cx="112" cy="110" r="108" fill="#e8e8e8" opacity="0.70"/>
  <g>
    <rect x="104" y="94" width="224" height="148" rx="24" fill="#ffffff" stroke="#d8d8d8"/>
    <rect x="132" y="126" width="86" height="14" rx="7" fill="#606060" opacity="0.7"/>
    <rect x="132" y="164" width="136" height="20" rx="10" fill="#171717" opacity="0.9"/>
    <rect x="132" y="204" width="112" height="12" rx="6" fill="#d4d4d4"/>
    <rect x="392" y="94" width="224" height="148" rx="24" fill="#ffffff" stroke="#d8d8d8"/>
    <rect x="420" y="126" width="86" height="14" rx="7" fill="#606060" opacity="0.7"/>
    <rect x="420" y="164" width="136" height="20" rx="10" fill="#171717" opacity="0.9"/>
    <rect x="420" y="204" width="112" height="12" rx="6" fill="#d4d4d4"/>
    <rect x="104" y="286" width="224" height="148" rx="24" fill="#ffffff" stroke="#d8d8d8"/>
    <rect x="132" y="318" width="86" height="14" rx="7" fill="#606060" opacity="0.7"/>
    <rect x="132" y="356" width="136" height="20" rx="10" fill="#171717" opacity="0.9"/>
    <rect x="132" y="396" width="112" height="12" rx="6" fill="#d4d4d4"/>
    <rect x="392" y="286" width="224" height="148" rx="24" fill="#ffffff" stroke="#d8d8d8"/>
    <rect x="420" y="318" width="86" height="14" rx="7" fill="#606060" opacity="0.7"/>
    <rect x="420" y="356" width="136" height="20" rx="10" fill="#171717" opacity="0.9"/>
    <rect x="420" y="396" width="112" height="12" rx="6" fill="#d4d4d4"/>
  </g>
</svg>
