<svg xmlns="http://www.w3.org/2000/svg" viewBox="0 0 960 600" role="img" aria-labelledby="title desc">
  <title id="title">Interior website sample</title>
  <desc id="desc">A monochrome website preview illustration for an interior company portfolio sample.</desc>
  <rect width="960" height="600" fill="#0b0b0b"/>
  <rect x="62" y="56" width="836" height="488" rx="34" fill="#151515" stroke="#3a3a3a" stroke-width="2"/>
  <rect x="104" y="96" width="752" height="94" rx="24" fill="#101010" stroke="#4a4a4a" stroke-width="2"/>
  <text x="480" y="154" fill="#ffffff" font-family="Arial, Helvetica, sans-serif" font-size="34" font-weight="700" text-anchor="middle" letter-spacing="7">INTERIOR</text>
  <rect x="104" y="232" width="240" height="202" rx="24" fill="#101010" stroke="#4a4a4a" stroke-width="2"/>
  <rect x="380" y="232" width="240" height="202" rx="24" fill="#101010" stroke="#4a4a4a" stroke-width="2"/>
  <rect x="656" y="232" width="200" height="202" rx="24" fill="#101010" stroke="#4a4a4a" stroke-width="2"/>
  <path d="M140 386h168M140 342h168M140 298h168M416 386h168M416 342h168M416 298h168M692 386h120M692 342h120M692 298h120" stroke="#f5f5f5" stroke-width="10" stroke-linecap="round" opacity=".82"/>
  <path d="M132 470h500" stroke="#737373" stroke-width="14" stroke-linecap="round" opacity=".9"/>
  <rect x="656" y="456" width="200" height="54" rx="27" fill="#f5f5f5" opacity=".9"/>
  <text x="104" y="526" fill="#737373" font-family="Arial, Helvetica, sans-serif" font-size="22" font-weight="700" letter-spacing="4">PORTFOLIO · PROCESS · QUOTE</text>
</svg>
