<svg xmlns="http://www.w3.org/2000/svg" viewBox="0 0 960 600" role="img" aria-labelledby="title desc">
  <title id="title">Academy website sample</title>
  <desc id="desc">A monochrome website preview illustration for an academy portfolio sample.</desc>
  <rect width="960" height="600" fill="#0b0b0b"/>
  <rect x="62" y="56" width="836" height="488" rx="34" fill="#151515" stroke="#3a3a3a" stroke-width="2"/>
  <rect x="104" y="96" width="752" height="116" rx="26" fill="#101010" stroke="#4a4a4a" stroke-width="2"/>
  <text x="480" y="160" fill="#ffffff" font-family="Arial, Helvetica, sans-serif" font-size="36" font-weight="700" text-anchor="middle" letter-spacing="7">ACADEMY</text>
  <rect x="104" y="252" width="230" height="188" rx="24" fill="#101010" stroke="#4a4a4a" stroke-width="2"/>
  <rect x="374" y="252" width="230" height="188" rx="24" fill="#101010" stroke="#4a4a4a" stroke-width="2"/>
  <rect x="644" y="252" width="212" height="188" rx="24" fill="#101010" stroke="#4a4a4a" stroke-width="2"/>
  <circle cx="219" cy="314" r="32" fill="#f5f5f5" opacity=".88"/>
  <path d="M164 382h110M164 414h154M434 310h120M434 350h88M434 390h136M686 316h118M686 356h86M686 396h132" stroke="#f5f5f5" stroke-width="10" stroke-linecap="round" opacity=".82"/>
  <rect x="104" y="476" width="312" height="18" rx="9" fill="#737373" opacity=".9"/>
  <rect x="644" y="462" width="212" height="58" rx="29" fill="#f5f5f5" opacity=".9"/>
  <text x="104" y="526" fill="#737373" font-family="Arial, Helvetica, sans-serif" font-size="22" font-weight="700" letter-spacing="4">CURRICULUM · CLASS · COUNSELING</text>
</svg>
