<svg xmlns="http://www.w3.org/2000/svg" viewBox="0 0 960 600" role="img" aria-labelledby="title desc">
  <title id="title">Workroom website sample</title>
  <desc id="desc">A monochrome website preview illustration for a craft workroom portfolio sample.</desc>
  <rect width="960" height="600" fill="#0b0b0b"/>
  <rect x="62" y="56" width="836" height="488" rx="34" fill="#151515" stroke="#3a3a3a" stroke-width="2"/>
  <rect x="104" y="96" width="752" height="72" rx="18" fill="#101010" stroke="#4a4a4a" stroke-width="2"/>
  <circle cx="138" cy="132" r="10" fill="#f5f5f5" opacity=".86"/>
  <circle cx="172" cy="132" r="10" fill="#737373" opacity=".9"/>
  <circle cx="206" cy="132" r="10" fill="#737373" opacity=".7"/>
  <rect x="104" y="204" width="358" height="284" rx="26" fill="#101010" stroke="#4a4a4a" stroke-width="2"/>
  <path d="M172 426c44-70 88-70 132 0M198 280h138M198 320h178M198 360h126" fill="none" stroke="#f5f5f5" stroke-width="12" stroke-linecap="round" opacity=".86"/>
  <rect x="504" y="204" width="352" height="72" rx="20" fill="#101010" stroke="#4a4a4a" stroke-width="2"/>
  <rect x="504" y="306" width="352" height="72" rx="20" fill="#101010" stroke="#4a4a4a" stroke-width="2"/>
  <rect x="504" y="408" width="220" height="64" rx="32" fill="#f5f5f5" opacity=".9"/>
  <text x="480" y="138" fill="#ffffff" font-family="Arial, Helvetica, sans-serif" font-size="28" font-weight="700" text-anchor="middle" letter-spacing="6">WORKROOM</text>
  <text x="504" y="526" fill="#737373" font-family="Arial, Helvetica, sans-serif" font-size="22" font-weight="700" letter-spacing="4">CLASS · CRAFT · RESERVATION</text>
</svg>
