<svg xmlns="http://www.w3.org/2000/svg" width="720" height="520" viewBox="0 0 720 520" role="img" aria-label="웹사이트 제작 서비스 구성 일러스트">

  <defs>
    <linearGradient id="bg" x1="0" x2="1" y1="0" y2="1"><stop offset="0" stop-color="#ffffff"/><stop offset="1" stop-color="#f5f5f5"/></linearGradient>
    <filter id="soft" x="-20%" y="-20%" width="140%" height="140%"><feDropShadow dx="0" dy="18" stdDeviation="22" flood-color="#171717" flood-opacity="0.10"/></filter>
  </defs>

  <rect width="720" height="520" rx="34" fill="#ffffff"/>
  <circle cx="590" cy="420" r="120" fill="#e8e8e8" opacity="0.74"/>
  <g>
    <rect x="86" y="96" width="170" height="300" rx="28" fill="#ffffff" stroke="#e8e8e8"/>
    <rect x="110" y="132" width="82" height="16" rx="8" fill="#606060" opacity="0.72"/>
    <rect x="110" y="174" width="112" height="20" rx="10" fill="#171717" opacity="0.9"/>
    <rect x="110" y="226" width="112" height="12" rx="6" fill="#d4d4d4"/>
    <rect x="110" y="254" width="92" height="12" rx="6" fill="#e7e7e7"/>
    <rect x="276" y="68" width="170" height="360" rx="28" fill="#ffffff" stroke="#bebebe"/>
    <rect x="300" y="106" width="98" height="16" rx="8" fill="#606060" opacity="0.78"/>
    <rect x="300" y="150" width="116" height="22" rx="11" fill="#171717" opacity="0.9"/>
    <rect x="300" y="204" width="112" height="12" rx="6" fill="#d4d4d4"/>
    <rect x="300" y="232" width="92" height="12" rx="6" fill="#e7e7e7"/>
    <rect x="300" y="300" width="96" height="42" rx="21" fill="#606060"/>
    <rect x="466" y="116" width="170" height="280" rx="28" fill="#ffffff" stroke="#e8e8e8"/>
    <rect x="490" y="150" width="90" height="16" rx="8" fill="#606060" opacity="0.65"/>
    <rect x="490" y="194" width="112" height="20" rx="10" fill="#171717" opacity="0.9"/>
    <rect x="490" y="244" width="110" height="12" rx="6" fill="#d4d4d4"/>
    <rect x="490" y="272" width="84" height="12" rx="6" fill="#e7e7e7"/>
  </g>
</svg>
