<svg xmlns="http://www.w3.org/2000/svg" width="720" height="520" viewBox="0 0 720 520" role="img" aria-label="웹사이트 구조를 정리하는 NOVAWORK 일러스트">

  <defs>
    <linearGradient id="bg" x1="0" x2="1" y1="0" y2="1"><stop offset="0" stop-color="#ffffff"/><stop offset="1" stop-color="#f5f5f5"/></linearGradient>
    <filter id="soft" x="-20%" y="-20%" width="140%" height="140%"><feDropShadow dx="0" dy="18" stdDeviation="22" flood-color="#171717" flood-opacity="0.10"/></filter>
  </defs>

  <rect width="720" height="520" rx="34" fill="url(#bg)"/>
  <circle cx="610" cy="92" r="110" fill="#e8e8e8" opacity="0.82"/>
  <circle cx="90" cy="438" r="130" fill="#efefef" opacity="0.78"/>
  <g filter="url(#soft)">
    <rect x="88" y="80" width="544" height="360" rx="28" fill="#ffffff" stroke="#e8e8e8"/>
    <rect x="126" y="122" width="168" height="18" rx="9" fill="#606060" opacity="0.82"/>
    <rect x="126" y="164" width="310" height="28" rx="14" fill="#171717" opacity="0.9"/>
    <rect x="126" y="212" width="420" height="14" rx="7" fill="#d4d4d4"/>
    <rect x="126" y="240" width="360" height="14" rx="7" fill="#e7e7e7"/>
    <rect x="126" y="300" width="120" height="72" rx="18" fill="#f5f5f5" stroke="#d8d8d8"/>
    <rect x="278" y="300" width="120" height="72" rx="18" fill="#f5f5f5" stroke="#d8d8d8"/>
    <rect x="430" y="300" width="120" height="72" rx="18" fill="#f5f5f5" stroke="#d8d8d8"/>
    <path d="M158 335h56M310 335h56M462 335h56" stroke="#606060" stroke-width="10" stroke-linecap="round" opacity="0.7"/>
  </g>
</svg>
